<svg width="79" height="16" viewBox="0 0 79 16" fill="none" xmlns="http://www.w3.org/2000/svg"><path d="M.267 15c-.066 0-.1-.033-.1-.1l.04-13.74c0-.053.027-.08.08-.08l3.74-.02a3.68 3.68 0 0 1 2 .52c.614.36 1.1.847 1.46 1.46.36.6.54 1.267.54 2v5.74c0 .773-.186 1.48-.56 2.12a4.254 4.254 0 0 1-1.5 1.5c-.626.373-1.333.567-2.12.58L.267 15zm2.34-2.46h1.24a1.65 1.65 0 0 0 1.24-.52c.347-.347.52-.76.52-1.24V5.02c0-.427-.16-.793-.48-1.1a1.405 1.405 0 0 0-1.1-.46l-1.4.02-.02 9.06zM9.681 15c-.054 0-.08-.033-.08-.1l.04-13.74c0-.053.026-.08.08-.08h4.04c.72 0 1.38.18 1.98.54.613.347 1.1.82 1.46 1.42.36.587.54 1.253.54 2 0 .493-.074.94-.22 1.34-.147.387-.32.72-.52 1-.2.267-.38.467-.54.6.72.8 1.08 1.74 1.08 2.82l.02 4.1c0 .067-.034.1-.1.1H15.2c-.054 0-.08-.02-.08-.06V10.8c0-.48-.174-.893-.52-1.24a1.622 1.622 0 0 0-1.24-.54h-1.32l-.02 5.88c0 .067-.027.1-.08.1H9.68zm2.36-8.38h1.72c.413 0 .78-.153 1.1-.46.32-.307.48-.68.48-1.12 0-.427-.16-.793-.48-1.1a1.501 1.501 0 0 0-1.1-.46h-1.72v3.14zM19.349 15c-.066 0-.1-.033-.1-.1l.02-13.74c0-.053.027-.08.08-.08h2.24c.054 0 .08.027.08.08l.02 13.74c0 .067-.026.1-.08.1h-2.26zm6.34 0c-.054 0-.087-.033-.1-.1l-2.76-13.74c-.014-.053.013-.08.08-.08h2.26c.053 0 .086.027.1.08l1.64 9.16 1.6-9.16c.013-.053.046-.08.1-.08h2.24c.066 0 .093.027.08.08l-2.72 13.74c-.014.067-.047.1-.1.1h-2.42zm6.492 0c-.054 0-.08-.033-.08-.1l.02-13.74c0-.053.026-.08.08-.08h6.42c.053 0 .08.033.08.1v2.24c0 .053-.027.08-.08.08h-4.1v3.12h4.1c.053 0 .08.027.08.08l.02 2.26c0 .053-.027.08-.08.08h-4.12v3.5h4.12c.053 0 .08.033.08.1v2.28c0 .053-.027.08-.08.08h-6.46zm11.367 0c-.053 0-.08-.033-.08-.1l.04-13.74c0-.053.027-.08.08-.08h2.44c.053 0 .1.027.14.08l1.82 2.64 1.82-2.64c.04-.053.087-.08.14-.08h2.46c.053 0 .08.027.08.08l.04 13.74c0 .067-.027.1-.08.1h-2.26c-.053 0-.08-.033-.08-.1l-.02-10.2-2.1 3.04-2.08-3.04-.02 10.2c0 .067-.027.1-.08.1h-2.26zm14.362.2c-.72 0-1.38-.18-1.98-.54a4.373 4.373 0 0 1-1.42-1.46 3.918 3.918 0 0 1-.54-2.02l.02-6.34c0-.733.173-1.4.52-2 .36-.6.84-1.08 1.44-1.44a3.74 3.74 0 0 1 1.96-.54c.72 0 1.373.18 1.96.54.587.36 1.053.84 1.4 1.44.36.6.54 1.267.54 2l.02 6.34c0 .733-.18 1.407-.54 2.02-.346.6-.82 1.087-1.42 1.46-.587.36-1.24.54-1.96.54zm0-2.42c.4 0 .747-.16 1.04-.48.307-.333.46-.707.46-1.12l-.02-6.34c0-.44-.14-.813-.42-1.12a1.374 1.374 0 0 0-1.06-.46c-.413 0-.766.153-1.06.46-.293.293-.44.667-.44 1.12v6.34c0 .44.147.82.44 1.14.294.307.647.46 1.06.46zM65.097 15c-.053 0-.08-.033-.08-.1V3.5h-2.6c-.067 0-.1-.033-.1-.1l.02-2.24c0-.053.026-.08.08-.08h7.6c.067 0 .1.027.1.08V3.4c0 .067-.027.1-.08.1h-2.62l.02 11.4c0 .067-.027.1-.08.1h-2.26zm9.259.2c-.72 0-1.38-.18-1.98-.54a4.373 4.373 0 0 1-1.42-1.46 3.918 3.918 0 0 1-.54-2.02l.02-6.34c0-.733.173-1.4.52-2 .36-.6.84-1.08 1.44-1.44a3.74 3.74 0 0 1 1.96-.54c.72 0 1.373.18 1.96.54.586.36 1.053.84 1.4 1.44.36.6.54 1.267.54 2l.02 6.34c0 .733-.18 1.407-.54 2.02-.347.6-.82 1.087-1.42 1.46-.587.36-1.24.54-1.96.54zm0-2.42c.4 0 .746-.16 1.04-.48.306-.333.46-.707.46-1.12l-.02-6.34c0-.44-.14-.813-.42-1.12a1.374 1.374 0 0 0-1.06-.46c-.414 0-.767.153-1.06.46-.294.293-.44.667-.44 1.12v6.34c0 .44.146.82.44 1.14.293.307.646.46 1.06.46z" fill="#2F3035"/></svg>