<svg xmlns="http://www.w3.org/2000/svg" width="30" height="30" viewBox="0 0 30 30"><path fill="#2f3035" d="M17.416 29.8c-.125.02-.25.04-.376.056m.68-.106l-.18.031m-.829.119c-.146.016-.293.031-.441.043m.721-.073c-.07.01-.14.018-.211.026m1.348-.226l-.158.033m1.168-.283l-.128.035m-.18.045l-.14.036m-.252.064l-.148.033m-2.033.317l-.237.018M30 15c0-8.283-6.717-15-15-15C6.717 0 0 6.717 0 15c0 8.283 6.717 15 15 15l.264-.003V18.32H12.04v-3.756h3.223V11.8c0-3.205 1.956-4.95 4.816-4.95 1.369 0 2.546.103 2.889.148v3.35h-1.972c-1.555 0-1.857.74-1.857 1.824v2.392h3.72l-.485 3.756H19.14v11.1C25.41 27.623 30 21.848 30 15zM15.99 29.97c-.156.01-.313.018-.47.023m-.011-.003l-.249.006"/></svg>