<svg width="8" height="11" viewBox="0 0 8 11" fill="none" xmlns="http://www.w3.org/2000/svg"><mask id="a" fill="#fff"><path fill-rule="evenodd" clip-rule="evenodd" d="M3.151 6.492h.95c.384 0 .768 0 1.171-.04C6.768 6.372 7.96 5.12 8 3.592c.02-1.57-1.152-2.94-2.647-3.02-.95-.04-1.878-.04-2.868-.02-.445.02-.89.02-1.354.02H.93v4.569H0v1.33h.93v.537H.02V8.34h.91v1.847h1.454V8.34h2.242V7.01H2.384v-.517h.767zM2.727 5.16h.707c.849.02 1.434 0 1.778-.02a1.611 1.611 0 0 0 1.434-1.63 1.63 1.63 0 0 0-1.555-1.628c-.483-.03-.966-.026-1.466-.022l-.514.002h-.727V5.14h.343v.02z"/></mask><path fill-rule="evenodd" clip-rule="evenodd" d="M3.151 6.492h.95c.384 0 .768 0 1.171-.04C6.768 6.372 7.96 5.12 8 3.592c.02-1.57-1.152-2.94-2.647-3.02-.95-.04-1.878-.04-2.868-.02-.445.02-.89.02-1.354.02H.93v4.569H0v1.33h.93v.537H.02V8.34h.91v1.847h1.454V8.34h2.242V7.01H2.384v-.517h.767zM2.727 5.16h.707c.849.02 1.434 0 1.778-.02a1.611 1.611 0 0 0 1.434-1.63 1.63 1.63 0 0 0-1.555-1.628c-.483-.03-.966-.026-1.466-.022l-.514.002h-.727V5.14h.343v.02z" fill="#C4C4C4"/><path d="M5.272 6.452l-.013-.25-.011.001.024.249zM8 3.592l.25.006v-.003L8 3.59zM5.353.571l.014-.25h-.003l-.01.25zM2.485.552L2.48.302h-.006l.01.25zM.929.572v-.25H.68v.25h.25zm0 4.013v.25h.25v-.25H.93zm0 0v-.25H.68v.25h.25zm0 .556v.25h.25v-.25H.93zM0 5.14v-.25h-.25v.25H0zm0 1.33h-.25v.25H0v-.25zm.93 0h.25v-.25H.93v.25zm0 .537v.25h.25v-.25H.93zm-.91 0v-.25h-.25v.25h.25zm0 1.331h-.25v.25h.25v-.25zm.91 0h.25v-.25H.93v.25zm0 1.847H.68v.25h.25v-.25zm1.454 0v.25h.25v-.25h-.25zm0-1.847v-.25h-.25v.25h.25zm2.242 0v.25h.25v-.25h-.25zm0-1.33h.25v-.25h-.25v.25zm-2.242 0h-.25v.25h.25v-.25zm0-.517v-.25h-.25v.25h.25zm.343-1.331h-.25v.25h.25v-.25zm.707 0l.006-.25h-.006v.25zm1.778-.02l.014.25.01-.001-.024-.25zm1.434-1.63h-.25v.007l.25-.006zM5.091 1.884l-.016.25h.004l.012-.25zm-1.466-.022l.002.25-.002-.25zm-1.241.002v-.25h-.25v.25h.25zm0 3.278h-.25v.25h.25v-.25zm.343 0h.25v-.25h-.25v.25zm1.374 1.1h-.95v.5h.95v-.5zm0 0v.5-.5zm1.147-.038c-.39.038-.762.039-1.147.039v.5c.382 0 .778 0 1.196-.041l-.049-.498zM7.75 3.585C7.713 4.989 6.62 6.13 5.26 6.202l.026.5c1.63-.087 2.92-1.449 2.964-3.104l-.5-.013zM5.34.822c1.344.071 2.428 1.314 2.41 2.766l.5.007C8.27 1.908 7.012.41 5.367.322l-.027.5zM2.49.802c.987-.02 1.91-.02 2.853.02l.02-.5A45.99 45.99 0 0 0 2.48.302l.01.5zm-1.36.02c.464 0 .914 0 1.365-.02l-.022-.5c-.438.02-.877.02-1.343.02v.5zm-.202 0h.202v-.5h-.2v.5zm.25 3.763V.572h-.5v4.013h.5zm-.25.25v-.5.5zm.25.306v-.556h-.5v.556h.5zM0 5.39h.93v-.5H0v.5zm.25 1.08V5.14h-.5v1.33h.5zm.68-.25H0v.5h.93v-.5zm.25.787v-.536h-.5v.536h.5zm-1.16.25h.91v-.5H.02v.5zM.27 8.34V7.01h-.5v1.33h.5zm.66-.25H.02v.5h.91v-.5zm.25 2.097V8.34h-.5v1.847h.5zm1.204-.25H.929v.5h1.455v-.5zm-.25-1.597v1.847h.5V8.34h-.5zm2.492-.25H2.384v.5h2.242v-.5zm-.25-1.08v1.33h.5V7.01h-.5zm-1.992.25h2.242v-.5H2.384v.5zm-.25-.767v.516h.5v-.516h-.5zm1.017-.25h-.767v.5h.767v-.5zM3.01 4.91h-.283v.5h.283v-.5zm.343 0H3.01v.5h.343v-.5zm.081 0h-.08v.5h.08v-.5zm1.763-.02c-.336.02-.915.04-1.757.02l-.012.5c.855.02 1.448 0 1.798-.02l-.029-.5zm1.2-1.373a1.361 1.361 0 0 1-1.21 1.374l.05.498a1.861 1.861 0 0 0 1.66-1.884l-.5.012zM5.078 2.133a1.38 1.38 0 0 1 1.317 1.379h.5a1.88 1.88 0 0 0-1.794-1.879l-.023.5zM3.627 2.11c.501-.004.975-.008 1.448.022l.031-.5c-.493-.03-.985-.026-1.483-.022l.004.5zm-.516.002l.516-.002-.004-.5-.512.002v.5zm-.727 0h.727v-.5h-.727v.5zm.25 3.028V1.863h-.5v3.278h.5zm.093-.25h-.343v.5h.343v-.5zm.25.27v-.02h-.5v.02h.5z" fill="#fff" mask="url(#a)"/></svg>