<svg width="16" height="19" viewBox="0 0 16 19" fill="none" xmlns="http://www.w3.org/2000/svg"><path d="M2.677 9.604V.802c2.803 0 5.341-.115 7.879.038 2.651.153 4.659 2.679 4.583 5.434-.076 2.68-2.121 5.014-4.772 5.129-1.894.114-3.75.038-5.72.038l-1.97-1.837zm1.97-7.042v7.119c.492.038 1.97 0 2.348 0 1.061 0 2.538.038 3.372-.077 1.78-.191 3.068-1.76 3.03-3.52-.038-1.838-1.402-3.407-3.258-3.522-1.78-.076-3.598 0-5.492 0z" fill="#1C62CD"/><path d="M8.246 11.86H4.647v-.765h1.818c1.326 0 2.614.039 3.902-.038 2.424-.153 4.356-2.22 4.394-4.784.075-2.64-1.856-4.898-4.243-5.051-1.742-.115-3.484-.077-5.303-.039-.72 0-1.439.039-2.159.039v8.42H2.3V.455h.379c.87 0 1.704 0 2.537-.038a83.623 83.623 0 0 1 5.38.038c2.802.153 5 2.794 4.961 5.817-.076 2.947-2.31 5.358-5.113 5.511-.758.077-1.478.077-2.197.077zm0-1.798H4.61l-.341-.038V2.14H6.39c1.288 0 2.538-.038 3.788.039 2.007.114 3.598 1.836 3.636 3.903.038 1.99-1.477 3.712-3.371 3.904-.493.076-1.25.076-2.197.076zm-1.402-.765h.152c1.59.038 2.69 0 3.333-.039 1.515-.153 2.727-1.53 2.69-3.138 0-1.684-1.289-3.061-2.917-3.138-1.212-.076-2.424-.038-3.712-.038H5.026v6.353h1.818z" fill="#1C62CD"/><path d="M5.329 9.68H.973v1.8h4.356v-1.8z" fill="#1C62CD"/><path d="M5.67 11.822H.557V9.258H5.67v2.564zm-4.318-.765H4.95v-1.033H1.353v1.033zm7.499 2.183H.973v1.8H8.85v-1.8z" fill="#1C62CD"/><path d="M9.23 15.42H.594v-2.564H9.23v2.564zm-7.879-.765h7.121V13.62h-7.12v1.034z" fill="#1C62CD"/><path d="M4.647 8.57h-1.97v10.028h1.97V8.57z" fill="#1C62CD"/><path d="M5.026 18.98H2.3V8.186h2.727v10.792zm-1.97-.766H4.27V8.952H3.056v9.262z" fill="#1C62CD"/></svg>