<svg xmlns="http://www.w3.org/2000/svg" width="30" height="30" viewBox="0 0 30 30"><path fill="#2f3035" d="M22.705 14.998a7.697 7.697 0 0 1-7.697 7.697 7.697 7.697 0 0 1-7.698-7.697A7.697 7.697 0 0 1 15.007 7.3a7.697 7.697 0 0 1 7.698 7.698zm-2.701 0A4.995 4.995 0 0 0 15.007 10a4.995 4.995 0 0 0-4.996 4.997 4.995 4.995 0 0 0 4.996 4.996 4.994 4.994 0 0 0 4.997-4.996z"/><path fill="#2f3035" d="M29.905 8.814c.123 2.763.13 9.598 0 12.359-.205 4.461-2.302 6.945-5.081 8.024-2.044.791-4.039.787-9.819.787-5.633 0-9.577.379-12.473-2.516C-.31 24.627.015 20.829.015 14.994c0-5.701-.368-9.589 2.517-12.474C4.258.794 6.399.208 8.827.094c2.762-.122 9.598-.129 12.358 0 5.647.26 8.473 3.454 8.72 8.72zm-2.608 6.179c0-4.003-.017-4.478-.088-6.059-.314-6.93-5.54-6.232-12.201-6.232l-.056-.038c-4.01 0-4.478.019-6.07.075-6.932.355-6.223 5.329-6.223 12.235 0 5.104-.381 8.47 1.725 10.566 1.829 1.834 4.335 1.742 10.585 1.742 6.07 0 8.694.169 10.585-1.723 1.859-1.867 1.741-4.389 1.743-10.566z"/><path fill="#2f3035" d="M23.009 8.787a1.799 1.799 0 1 0 0-3.597 1.799 1.799 0 0 0 0 3.597z"/></svg>