<svg xmlns="http://www.w3.org/2000/svg" width="24" height="30" viewBox="0 0 24 30"><path d="M24.033 12.025a12.372 12.372 0 0 1-.296 2.66c-.182.818-.452 1.61-.805 2.372-1.295 3.05-4.15 7.736-10.396 12.754a.854.854 0 0 1-1.07 0c-6.25-5.019-9.1-9.704-10.395-12.754a11.842 11.842 0 0 1-.887-2.774 11.835 11.835 0 0 1-.214-2.258C-.03 5.396 5.366 0 11.995 0c6.63 0 12.025 5.396 12.038 12.025zm-1.71-.006c0-5.692-4.636-10.327-10.328-10.327-5.692 0-10.327 4.635-10.327 10.327 0 .66.063 1.314.189 1.962 0 .019.006.032.006.044.006.032.019.126.057.27v.013c.163.705.396 1.396.698 2.05.006.007.006.02.012.026 1.176 2.786 3.755 7.037 9.365 11.673 5.61-4.636 8.189-8.887 9.365-11.673.006-.007.006-.02.012-.026.309-.66.541-1.345.699-2.05v-.012l.056-.27c0-.013.006-.026.006-.039.126-.641.19-1.302.19-1.968z"/><path d="M19.63 12.155c0 4.208-3.427 7.635-7.635 7.635-4.207 0-7.635-3.427-7.635-7.635 0-4.207 3.428-7.635 7.635-7.635 4.208 0 7.635 3.428 7.635 7.635zm-1.698 0a5.948 5.948 0 0 0-5.937-5.937 5.948 5.948 0 0 0-5.937 5.937c0 3.27 2.66 5.937 5.937 5.937a5.944 5.944 0 0 0 5.937-5.937z"/></svg>