<svg xmlns="http://www.w3.org/2000/svg" width="79" height="71" viewBox="0 0 79 71"><text dominant-baseline="text-before-edge" style="font-kerning:normal" fill="#2f3035" font-family="'Staatliches','Staatliches-Regular'" font-size="20" transform="translate(0 51)"><tspan style="font-kerning:normal">DRIVE MOTO</tspan></text><path fill="#2f3035" d="M59.289 10.586c-2.112 3.098-12.73 18.636-14.4 20.306a6.192 6.192 0 0 1-4.39 1.816 6.192 6.192 0 0 1-4.393-1.816 6.218 6.218 0 0 1 0-8.783c1.67-1.67 17.208-12.288 20.306-14.4a2.07 2.07 0 0 1 2.877 2.878zm-9.767 6.89c-5.428 3.774-9.84 6.92-10.488 7.561a2.072 2.072 0 0 0 0 2.927c.807.808 2.12.808 2.928 0 .64-.648 3.787-5.06 7.56-10.487z"/><path fill="#2f3035" d="M23.547 36.13l-2.555 1.246a22.251 22.251 0 0 1-1.396-18.814l2.929 1.405a2.07 2.07 0 0 0 1.79-3.733l-2.891-1.387c3.594-5.862 9.812-9.948 17.006-10.611V7.35a2.07 2.07 0 1 0 4.14 0V4.234a22.14 22.14 0 0 1 7.12 1.875 2.07 2.07 0 0 0 1.703-3.773A26.299 26.299 0 0 0 40.5 0c-7.078 0-13.733 2.756-18.738 7.762C16.757 12.767 14 19.422 14 26.5c0 5.23 1.553 10.318 4.49 14.711a2.07 2.07 0 0 0 2.629.71l4.244-2.07a2.07 2.07 0 1 0-1.816-3.722zm41.117-20.52a2.07 2.07 0 1 0-3.774 1.703 22.182 22.182 0 0 1 1.969 9.189c0 3.819-.984 7.55-2.86 10.892l-2.668-1.271a2.07 2.07 0 0 0-1.78 3.738l4.347 2.07a2.07 2.07 0 0 0 2.611-.719c2.938-4.392 4.49-9.48 4.49-14.71 0-3.795-.785-7.46-2.335-10.893z"/></svg>