<svg xmlns="http://www.w3.org/2000/svg" width="30" height="18" viewBox="0 0 30 18"><path fill="#2f3035" d="M24.894 10.285c-.485-.613-.346-.885 0-1.433.006-.006 4.01-5.538 4.422-7.415h.003c.205-.685 0-1.187-.991-1.187h-3.28c-.835 0-1.22.431-1.427.914 0 0-1.67 3.997-4.032 6.588-.763.75-1.115.99-1.532.99-.205 0-.523-.24-.523-.925v-6.38c0-.82-.234-1.187-.925-1.187H11.45c-.524 0-.835.382-.835.739 0 .777 1.181.956 1.304 3.143V8.88c0 1.04-.189 1.231-.608 1.231-1.115 0-3.82-4.014-5.425-8.607C5.564.61 5.247.25 4.407.25H1.124C.189.251 0 .682 0 1.165c0 .852 1.115 5.091 5.185 10.691 2.712 3.823 6.532 5.894 10.007 5.894 2.09 0 2.344-.46 2.344-1.251 0-3.653-.189-3.998.858-3.998.485 0 1.32.24 3.27 2.084 2.228 2.186 2.595 3.165 3.842 3.165h3.28c.935 0 1.409-.46 1.136-1.367-.623-1.91-4.838-5.835-5.028-6.098z"/></svg>