<svg xmlns="http://www.w3.org/2000/svg" width="30" height="30" viewBox="0 0 30 30"><path fill="#2f3035" d="M13.13 17.81L18.01 15l-4.88-2.81z"/><path fill="#2f3035" d="M30 15c0 8.283-6.717 15-15 15-8.283 0-15-6.717-15-15C0 6.717 6.717 0 15 0c8.283 0 15 6.717 15 15zm-6.013-4.509a2.349 2.349 0 0 0-1.652-1.652C20.867 8.437 15 8.437 15 8.437s-5.868 0-7.335.387a2.396 2.396 0 0 0-1.652 1.667C5.627 11.958 5.627 15 5.627 15s0 3.057.386 4.509a2.35 2.35 0 0 0 1.652 1.652c1.483.402 7.335.402 7.335.402s5.868 0 7.334-.387a2.349 2.349 0 0 0 1.653-1.652c.386-1.467.386-4.509.386-4.509s.015-3.057-.386-4.524z"/></svg>